<svg xmlns="http://www.w3.org/2000/svg" viewBox="0 0 1200 630" width="1200" height="630">
  <defs>
    <linearGradient id="bg" x1="0" y1="0" x2="1" y2="1">
      <stop offset="0" stop-color="#1e1815"/>
      <stop offset="1" stop-color="#3a1a0d"/>
    </linearGradient>
    <linearGradient id="flame" x1="0" y1="1" x2="0" y2="0">
      <stop offset="0" stop-color="#e64a19"/>
      <stop offset="0.55" stop-color="#ff7043"/>
      <stop offset="1" stop-color="#ffca28"/>
    </linearGradient>
  </defs>
  <rect width="1200" height="630" fill="url(#bg)"/>
  <path fill="url(#flame)" d="M170 120c8 40-24 56-40 84-12 20-12 44 4 56 4-16 12-28 24-36-4 24 8 36 24 44 20 12 32 32 32 56 0 32-28 56-76 56-52 0-88-36-88-92 0-68 56-96 72-152 8-32 24-56 48-76z"/>
  <text x="360" y="300" font-family="system-ui, sans-serif" font-size="96" font-weight="800" fill="#ffffff">Flame Project</text>
  <text x="362" y="380" font-family="system-ui, sans-serif" font-size="42" fill="#ffab91">Open Source RPG-гейммод для open.mp</text>
  <text x="362" y="450" font-family="system-ui, sans-serif" font-size="34" fill="#b0a8a2">Pawn · MySQL · open.mp · SAMP_COMPAT</text>
</svg>
